<svg width="97" height="97" viewBox="0 0 97 97" fill="none" xmlns="http://www.w3.org/2000/svg">
<g clip-path="url(#clip0_2206_48312)">
<g filter="url(#filter0_d_2206_48312)">
<rect x="0.95459" y="0.217773" width="96" height="96" rx="14.6594" fill="url(#paint0_linear_2206_48312)"/>
</g>
<g clip-path="url(#clip1_2206_48312)">
<path d="M44.2746 54.7031V42.7935C44.2746 42.7213 44.2936 42.6505 44.3297 42.588C44.3658 42.5255 44.4176 42.4737 44.4801 42.4376C44.5426 42.4015 44.6134 42.3826 44.6856 42.3826C44.7577 42.3826 44.8285 42.4015 44.891 42.4376L55.205 48.3924C55.2675 48.4285 55.3194 48.4804 55.3554 48.5428C55.3915 48.6053 55.4105 48.6762 55.4105 48.7483C55.4105 48.8204 55.3915 48.8913 55.3554 48.9537C55.3194 49.0162 55.2675 49.0681 55.205 49.1041L44.891 55.0589C44.8285 55.095 44.7577 55.114 44.6856 55.114C44.6134 55.114 44.5426 55.095 44.4801 55.0589C44.4176 55.0229 44.3658 54.971 44.3297 54.9085C44.2936 54.8461 44.2746 54.7752 44.2746 54.7031ZM21.9418 68.3852V29.1114C21.9431 27.9792 22.3933 26.8938 23.1939 26.0932C23.9944 25.2927 25.0798 24.8423 26.2119 24.8409H70.0351C71.1673 24.8423 72.2527 25.2927 73.0532 26.0932C73.8537 26.8938 74.304 27.9792 74.3053 29.1114V68.3852C74.304 69.5173 73.8537 70.6028 73.0532 71.4033C72.2527 72.2039 71.1673 72.6543 70.0351 72.6556H26.2119C25.0798 72.6543 23.9944 72.2039 23.1939 71.4033C22.3933 70.6028 21.9431 69.5173 21.9418 68.3852ZM30.85 70.3284V62.3681H24.269V68.3852C24.2696 68.9003 24.4744 69.3942 24.8387 69.7585C25.2029 70.1228 25.6968 70.3278 26.2119 70.3284H30.85ZM38.4116 48.7483C38.4116 50.6691 38.9812 52.5468 40.0484 54.144C41.1155 55.7411 42.6323 56.9859 44.407 57.721C46.1816 58.456 48.1343 58.6484 50.0183 58.2736C51.9022 57.8989 53.6327 56.9739 54.991 55.6157C56.3492 54.2574 57.2742 52.5269 57.6489 50.643C58.0236 48.7591 57.8313 46.8063 57.0962 45.0317C56.3612 43.2571 55.1164 41.7403 53.5192 40.6731C51.9221 39.6059 50.0444 39.0363 48.1236 39.0363C45.5478 39.0363 43.0775 40.0596 41.2562 41.8809C39.4349 43.7023 38.4116 46.1725 38.4116 48.7483ZM65.3971 58.6656H71.978V50.5995H65.3971V58.6656ZM71.978 46.8971V38.831L65.3971 38.8309V46.8971H71.978ZM30.85 38.8309H24.269V46.8971H30.85V38.8309ZM24.269 50.5995V58.6656H30.85V50.5995H24.269ZM71.978 68.3852V62.3681H65.3971V70.3284H70.0352C70.5503 70.3277 71.0442 70.1228 71.4084 69.7585C71.7726 69.3942 71.9775 68.9003 71.978 68.3852ZM65.3971 27.1682V35.1285H71.978V29.1114C71.9775 28.5962 71.7726 28.1023 71.4084 27.738C71.0442 27.3737 70.5503 27.1688 70.0351 27.1682L65.3971 27.1682ZM24.269 29.1114V35.1285H30.85V27.1682H26.2119C25.6968 27.1688 25.2029 27.3738 24.8387 27.738C24.4744 28.1023 24.2696 28.5962 24.269 29.1114Z" fill="white"/>
</g>
</g>
<defs>
<filter id="filter0_d_2206_48312" x="-43.0238" y="-40.8287" width="183.957" height="183.957" filterUnits="userSpaceOnUse" color-interpolation-filters="sRGB">
<feFlood flood-opacity="0" result="BackgroundImageFix"/>
<feColorMatrix in="SourceAlpha" type="matrix" values="0 0 0 0 0 0 0 0 0 0 0 0 0 0 0 0 0 0 127 0" result="hardAlpha"/>
<feOffset dy="2.93189"/>
<feGaussianBlur stdDeviation="21.9892"/>
<feColorMatrix type="matrix" values="0 0 0 0 0.6 0 0 0 0 0.611765 0 0 0 0 0.678431 0 0 0 0.2 0"/>
<feBlend mode="normal" in2="BackgroundImageFix" result="effect1_dropShadow_2206_48312"/>
<feBlend mode="normal" in="SourceGraphic" in2="effect1_dropShadow_2206_48312" result="shape"/>
</filter>
<linearGradient id="paint0_linear_2206_48312" x1="48.9546" y1="0.217775" x2="96.9546" y2="96.2178" gradientUnits="userSpaceOnUse">
<stop stop-color="#410083"/>
<stop offset="1" stop-color="#8000FF"/>
</linearGradient>
<clipPath id="clip0_2206_48312">
<rect width="96" height="96" fill="white" transform="translate(0.95459 0.217773)"/>
</clipPath>
<clipPath id="clip1_2206_48312">
<rect width="52.3635" height="52.3635" fill="white" transform="translate(21.9418 22.5664)"/>
</clipPath>
</defs>
</svg>
